<svg width="11" height="3" viewBox="0 0 11 3" fill="none" xmlns="http://www.w3.org/2000/svg">
<path fill-rule="evenodd" clip-rule="evenodd" d="M1.16 0.000214844C1.80065 0.000214844 2.32 0.519565 2.32 1.16021C2.32 1.80087 1.80065 2.32021 1.16 2.32021C0.51935 2.32021 0 1.80087 0 1.16021C0 0.519565 0.51935 0.000214844 1.16 0.000214844ZM5.41333 0C6.05398 0 6.57333 0.51935 6.57333 1.16C6.57333 1.80065 6.05398 2.32 5.41333 2.32C4.77268 2.32 4.25333 1.80065 4.25333 1.16C4.25333 0.51935 4.77268 0 5.41333 0ZM9.66667 0C10.3073 0 10.8267 0.51935 10.8267 1.16C10.8267 1.80065 10.3073 2.32 9.66667 2.32C9.02602 2.32 8.50667 1.80065 8.50667 1.16C8.50667 0.51935 9.02602 0 9.66667 0Z" fill="#262626"/>
</svg>
