<svg width="18" height="18" viewBox="0 0 18 18" fill="none" xmlns="http://www.w3.org/2000/svg">
<path d="M8.50684 0C13.2049 9.12574e-05 17.0137 3.80879 17.0137 8.50684C17.0136 9.48824 16.6715 10.8128 15.9873 12.4795L15.8545 12.7959L16.6621 16.1182C16.6996 16.2723 16.6895 16.4343 16.6318 16.582C16.4877 16.9515 16.0904 17.148 15.7158 17.0498L15.6299 17.0215L12.7324 15.8906C10.9407 16.6387 9.53223 17.0136 8.50684 17.0137C3.80879 17.0137 9.12599e-05 13.2049 0 8.50684C0 3.80873 3.80873 0 8.50684 0ZM8.50684 1.16016C4.44938 1.16016 1.16016 4.44938 1.16016 8.50684C1.16035 12.5641 4.44951 15.8535 8.50684 15.8535C9.29911 15.8535 10.4745 15.5534 11.9961 14.9395L12.7178 14.6396L15.3604 15.6709L14.6367 12.6953L14.9033 12.0645C15.5417 10.514 15.8534 9.31536 15.8535 8.50684C15.8535 4.44944 12.5642 1.16024 8.50684 1.16016Z" fill="#262626"/>
</svg>
